<?xml version="1.0" encoding="UTF-8" standalone="no"?>
<!--
    JBead application icon. Vectorised from
    resources/icons/jbead-32.png by emitting one rect per
    horizontal run of same-colored pixels, so the SVG is a
    pixel-exact reproduction of the 32x32 source while still
    rendering crisply at arbitrary sizes.
-->
<svg xmlns="http://www.w3.org/2000/svg" viewBox="0 0 32 32" shape-rendering="crispEdges">
  <g fill="#0000ff">
    <rect x="30" y="0" width="2" height="1"/>
    <rect x="30" y="1" width="2" height="1"/>
    <rect x="27" y="3" width="2" height="1"/>
    <rect x="26" y="4" width="3" height="1"/>
    <rect x="25" y="5" width="3" height="1"/>
    <rect x="26" y="6" width="1" height="1"/>
    <rect x="23" y="7" width="1" height="1"/>
    <rect x="22" y="8" width="3" height="1"/>
    <rect x="21" y="9" width="3" height="1"/>
    <rect x="21" y="10" width="2" height="1"/>
    <rect x="18" y="12" width="2" height="1"/>
    <rect x="17" y="13" width="3" height="1"/>
    <rect x="16" y="14" width="3" height="1"/>
    <rect x="17" y="15" width="1" height="1"/>
    <rect x="14" y="16" width="1" height="1"/>
    <rect x="13" y="17" width="3" height="1"/>
    <rect x="12" y="18" width="3" height="1"/>
    <rect x="12" y="19" width="2" height="1"/>
    <rect x="9" y="21" width="2" height="1"/>
    <rect x="8" y="22" width="3" height="1"/>
    <rect x="7" y="23" width="3" height="1"/>
    <rect x="8" y="24" width="1" height="1"/>
    <rect x="5" y="25" width="1" height="1"/>
    <rect x="4" y="26" width="3" height="1"/>
    <rect x="3" y="27" width="3" height="1"/>
    <rect x="3" y="28" width="2" height="1"/>
    <rect x="0" y="30" width="2" height="1"/>
    <rect x="0" y="31" width="2" height="1"/>
  </g>
  <g fill="#008000">
    <rect x="2" y="0" width="6" height="1"/>
    <rect x="11" y="0" width="6" height="1"/>
    <rect x="20" y="0" width="6" height="1"/>
    <rect x="29" y="0" width="1" height="1"/>
    <rect x="3" y="1" width="6" height="1"/>
    <rect x="12" y="1" width="6" height="1"/>
    <rect x="21" y="1" width="6" height="1"/>
    <rect x="0" y="2" width="1" height="1"/>
    <rect x="4" y="2" width="6" height="1"/>
    <rect x="13" y="2" width="6" height="1"/>
    <rect x="22" y="2" width="6" height="1"/>
    <rect x="31" y="2" width="1" height="1"/>
    <rect x="0" y="3" width="2" height="1"/>
    <rect x="5" y="3" width="6" height="1"/>
    <rect x="14" y="3" width="6" height="1"/>
    <rect x="23" y="3" width="4" height="1"/>
    <rect x="0" y="4" width="3" height="1"/>
    <rect x="6" y="4" width="6" height="1"/>
    <rect x="15" y="4" width="6" height="1"/>
    <rect x="24" y="4" width="2" height="1"/>
    <rect x="29" y="4" width="1" height="1"/>
    <rect x="0" y="5" width="4" height="1"/>
    <rect x="7" y="5" width="6" height="1"/>
    <rect x="16" y="5" width="6" height="1"/>
    <rect x="28" y="5" width="3" height="1"/>
    <rect x="0" y="6" width="5" height="1"/>
    <rect x="8" y="6" width="6" height="1"/>
    <rect x="17" y="6" width="6" height="1"/>
    <rect x="27" y="6" width="5" height="1"/>
    <rect x="0" y="7" width="6" height="1"/>
    <rect x="9" y="7" width="6" height="1"/>
    <rect x="18" y="7" width="5" height="1"/>
    <rect x="27" y="7" width="5" height="1"/>
    <rect x="1" y="8" width="6" height="1"/>
    <rect x="10" y="8" width="6" height="1"/>
    <rect x="19" y="8" width="3" height="1"/>
    <rect x="28" y="8" width="4" height="1"/>
    <rect x="2" y="9" width="6" height="1"/>
    <rect x="11" y="9" width="6" height="1"/>
    <rect x="20" y="9" width="1" height="1"/>
    <rect x="24" y="9" width="2" height="1"/>
    <rect x="29" y="9" width="3" height="1"/>
    <rect x="3" y="10" width="6" height="1"/>
    <rect x="12" y="10" width="6" height="1"/>
    <rect x="23" y="10" width="4" height="1"/>
    <rect x="30" y="10" width="2" height="1"/>
    <rect x="0" y="11" width="1" height="1"/>
    <rect x="4" y="11" width="6" height="1"/>
    <rect x="13" y="11" width="6" height="1"/>
    <rect x="22" y="11" width="6" height="1"/>
    <rect x="31" y="11" width="1" height="1"/>
    <rect x="0" y="12" width="2" height="1"/>
    <rect x="5" y="12" width="6" height="1"/>
    <rect x="14" y="12" width="4" height="1"/>
    <rect x="23" y="12" width="6" height="1"/>
    <rect x="0" y="13" width="3" height="1"/>
    <rect x="6" y="13" width="6" height="1"/>
    <rect x="15" y="13" width="2" height="1"/>
    <rect x="20" y="13" width="1" height="1"/>
    <rect x="24" y="13" width="6" height="1"/>
    <rect x="0" y="14" width="4" height="1"/>
    <rect x="7" y="14" width="6" height="1"/>
    <rect x="19" y="14" width="3" height="1"/>
    <rect x="25" y="14" width="6" height="1"/>
    <rect x="0" y="15" width="5" height="1"/>
    <rect x="8" y="15" width="6" height="1"/>
    <rect x="18" y="15" width="5" height="1"/>
    <rect x="26" y="15" width="6" height="1"/>
    <rect x="0" y="16" width="6" height="1"/>
    <rect x="9" y="16" width="5" height="1"/>
    <rect x="18" y="16" width="6" height="1"/>
    <rect x="27" y="16" width="5" height="1"/>
    <rect x="1" y="17" width="6" height="1"/>
    <rect x="10" y="17" width="3" height="1"/>
    <rect x="19" y="17" width="6" height="1"/>
    <rect x="28" y="17" width="4" height="1"/>
    <rect x="2" y="18" width="6" height="1"/>
    <rect x="11" y="18" width="1" height="1"/>
    <rect x="15" y="18" width="2" height="1"/>
    <rect x="20" y="18" width="6" height="1"/>
    <rect x="29" y="18" width="3" height="1"/>
    <rect x="3" y="19" width="6" height="1"/>
    <rect x="14" y="19" width="4" height="1"/>
    <rect x="21" y="19" width="6" height="1"/>
    <rect x="30" y="19" width="2" height="1"/>
    <rect x="0" y="20" width="1" height="1"/>
    <rect x="4" y="20" width="6" height="1"/>
    <rect x="13" y="20" width="6" height="1"/>
    <rect x="22" y="20" width="6" height="1"/>
    <rect x="31" y="20" width="1" height="1"/>
    <rect x="0" y="21" width="2" height="1"/>
    <rect x="5" y="21" width="4" height="1"/>
    <rect x="14" y="21" width="6" height="1"/>
    <rect x="23" y="21" width="6" height="1"/>
    <rect x="0" y="22" width="3" height="1"/>
    <rect x="6" y="22" width="2" height="1"/>
    <rect x="11" y="22" width="1" height="1"/>
    <rect x="15" y="22" width="6" height="1"/>
    <rect x="24" y="22" width="6" height="1"/>
    <rect x="0" y="23" width="4" height="1"/>
    <rect x="10" y="23" width="3" height="1"/>
    <rect x="16" y="23" width="6" height="1"/>
    <rect x="25" y="23" width="6" height="1"/>
    <rect x="0" y="24" width="5" height="1"/>
    <rect x="9" y="24" width="5" height="1"/>
    <rect x="17" y="24" width="6" height="1"/>
    <rect x="26" y="24" width="6" height="1"/>
    <rect x="0" y="25" width="5" height="1"/>
    <rect x="9" y="25" width="6" height="1"/>
    <rect x="18" y="25" width="6" height="1"/>
    <rect x="27" y="25" width="5" height="1"/>
    <rect x="1" y="26" width="3" height="1"/>
    <rect x="10" y="26" width="6" height="1"/>
    <rect x="19" y="26" width="6" height="1"/>
    <rect x="28" y="26" width="4" height="1"/>
    <rect x="2" y="27" width="1" height="1"/>
    <rect x="6" y="27" width="2" height="1"/>
    <rect x="11" y="27" width="6" height="1"/>
    <rect x="20" y="27" width="6" height="1"/>
    <rect x="29" y="27" width="3" height="1"/>
    <rect x="5" y="28" width="4" height="1"/>
    <rect x="12" y="28" width="6" height="1"/>
    <rect x="21" y="28" width="6" height="1"/>
    <rect x="30" y="28" width="2" height="1"/>
    <rect x="0" y="29" width="1" height="1"/>
    <rect x="4" y="29" width="6" height="1"/>
    <rect x="13" y="29" width="6" height="1"/>
    <rect x="22" y="29" width="6" height="1"/>
    <rect x="31" y="29" width="1" height="1"/>
    <rect x="5" y="30" width="6" height="1"/>
    <rect x="14" y="30" width="6" height="1"/>
    <rect x="23" y="30" width="6" height="1"/>
    <rect x="2" y="31" width="1" height="1"/>
    <rect x="6" y="31" width="6" height="1"/>
    <rect x="15" y="31" width="6" height="1"/>
    <rect x="24" y="31" width="6" height="1"/>
  </g>
  <g fill="#ff0000">
    <rect x="0" y="0" width="2" height="1"/>
    <rect x="8" y="0" width="3" height="1"/>
    <rect x="17" y="0" width="3" height="1"/>
    <rect x="26" y="0" width="3" height="1"/>
    <rect x="0" y="1" width="3" height="1"/>
    <rect x="9" y="1" width="3" height="1"/>
    <rect x="18" y="1" width="3" height="1"/>
    <rect x="27" y="1" width="3" height="1"/>
    <rect x="1" y="2" width="3" height="1"/>
    <rect x="10" y="2" width="3" height="1"/>
    <rect x="19" y="2" width="3" height="1"/>
    <rect x="28" y="2" width="3" height="1"/>
    <rect x="2" y="3" width="3" height="1"/>
    <rect x="11" y="3" width="3" height="1"/>
    <rect x="20" y="3" width="3" height="1"/>
    <rect x="29" y="3" width="3" height="1"/>
    <rect x="3" y="4" width="3" height="1"/>
    <rect x="12" y="4" width="3" height="1"/>
    <rect x="21" y="4" width="3" height="1"/>
    <rect x="30" y="4" width="2" height="1"/>
    <rect x="4" y="5" width="3" height="1"/>
    <rect x="13" y="5" width="3" height="1"/>
    <rect x="22" y="5" width="3" height="1"/>
    <rect x="31" y="5" width="1" height="1"/>
    <rect x="5" y="6" width="3" height="1"/>
    <rect x="14" y="6" width="3" height="1"/>
    <rect x="23" y="6" width="3" height="1"/>
    <rect x="6" y="7" width="3" height="1"/>
    <rect x="15" y="7" width="3" height="1"/>
    <rect x="24" y="7" width="3" height="1"/>
    <rect x="0" y="8" width="1" height="1"/>
    <rect x="7" y="8" width="3" height="1"/>
    <rect x="16" y="8" width="3" height="1"/>
    <rect x="25" y="8" width="3" height="1"/>
    <rect x="0" y="9" width="2" height="1"/>
    <rect x="8" y="9" width="3" height="1"/>
    <rect x="17" y="9" width="3" height="1"/>
    <rect x="26" y="9" width="3" height="1"/>
    <rect x="0" y="10" width="3" height="1"/>
    <rect x="9" y="10" width="3" height="1"/>
    <rect x="18" y="10" width="3" height="1"/>
    <rect x="27" y="10" width="3" height="1"/>
    <rect x="1" y="11" width="3" height="1"/>
    <rect x="10" y="11" width="3" height="1"/>
    <rect x="19" y="11" width="3" height="1"/>
    <rect x="28" y="11" width="3" height="1"/>
    <rect x="2" y="12" width="3" height="1"/>
    <rect x="11" y="12" width="3" height="1"/>
    <rect x="20" y="12" width="3" height="1"/>
    <rect x="29" y="12" width="3" height="1"/>
    <rect x="3" y="13" width="3" height="1"/>
    <rect x="12" y="13" width="3" height="1"/>
    <rect x="21" y="13" width="3" height="1"/>
    <rect x="30" y="13" width="2" height="1"/>
    <rect x="4" y="14" width="3" height="1"/>
    <rect x="13" y="14" width="3" height="1"/>
    <rect x="22" y="14" width="3" height="1"/>
    <rect x="31" y="14" width="1" height="1"/>
    <rect x="5" y="15" width="3" height="1"/>
    <rect x="14" y="15" width="3" height="1"/>
    <rect x="23" y="15" width="3" height="1"/>
    <rect x="6" y="16" width="3" height="1"/>
    <rect x="15" y="16" width="3" height="1"/>
    <rect x="24" y="16" width="3" height="1"/>
    <rect x="0" y="17" width="1" height="1"/>
    <rect x="7" y="17" width="3" height="1"/>
    <rect x="16" y="17" width="3" height="1"/>
    <rect x="25" y="17" width="3" height="1"/>
    <rect x="0" y="18" width="2" height="1"/>
    <rect x="8" y="18" width="3" height="1"/>
    <rect x="17" y="18" width="3" height="1"/>
    <rect x="26" y="18" width="3" height="1"/>
    <rect x="0" y="19" width="3" height="1"/>
    <rect x="9" y="19" width="3" height="1"/>
    <rect x="18" y="19" width="3" height="1"/>
    <rect x="27" y="19" width="3" height="1"/>
    <rect x="1" y="20" width="3" height="1"/>
    <rect x="10" y="20" width="3" height="1"/>
    <rect x="19" y="20" width="3" height="1"/>
    <rect x="28" y="20" width="3" height="1"/>
    <rect x="2" y="21" width="3" height="1"/>
    <rect x="11" y="21" width="3" height="1"/>
    <rect x="20" y="21" width="3" height="1"/>
    <rect x="29" y="21" width="3" height="1"/>
    <rect x="3" y="22" width="3" height="1"/>
    <rect x="12" y="22" width="3" height="1"/>
    <rect x="21" y="22" width="3" height="1"/>
    <rect x="30" y="22" width="2" height="1"/>
    <rect x="4" y="23" width="3" height="1"/>
    <rect x="13" y="23" width="3" height="1"/>
    <rect x="22" y="23" width="3" height="1"/>
    <rect x="31" y="23" width="1" height="1"/>
    <rect x="5" y="24" width="3" height="1"/>
    <rect x="14" y="24" width="3" height="1"/>
    <rect x="23" y="24" width="3" height="1"/>
    <rect x="6" y="25" width="3" height="1"/>
    <rect x="15" y="25" width="3" height="1"/>
    <rect x="24" y="25" width="3" height="1"/>
    <rect x="0" y="26" width="1" height="1"/>
    <rect x="7" y="26" width="3" height="1"/>
    <rect x="16" y="26" width="3" height="1"/>
    <rect x="25" y="26" width="3" height="1"/>
    <rect x="0" y="27" width="2" height="1"/>
    <rect x="8" y="27" width="3" height="1"/>
    <rect x="17" y="27" width="3" height="1"/>
    <rect x="26" y="27" width="3" height="1"/>
    <rect x="0" y="28" width="3" height="1"/>
    <rect x="9" y="28" width="3" height="1"/>
    <rect x="18" y="28" width="3" height="1"/>
    <rect x="27" y="28" width="3" height="1"/>
    <rect x="1" y="29" width="3" height="1"/>
    <rect x="10" y="29" width="3" height="1"/>
    <rect x="19" y="29" width="3" height="1"/>
    <rect x="28" y="29" width="3" height="1"/>
    <rect x="2" y="30" width="3" height="1"/>
    <rect x="11" y="30" width="3" height="1"/>
    <rect x="20" y="30" width="3" height="1"/>
    <rect x="29" y="30" width="3" height="1"/>
    <rect x="3" y="31" width="3" height="1"/>
    <rect x="12" y="31" width="3" height="1"/>
    <rect x="21" y="31" width="3" height="1"/>
    <rect x="30" y="31" width="2" height="1"/>
  </g>
</svg>
